<svg width="20" height="20" viewBox="0 0 20 20" fill="none" xmlns="http://www.w3.org/2000/svg">
  <path fill-rule="evenodd" clip-rule="evenodd" d="M7.6525 0.490064C7.98593 0.296675 8.36454 0.194824 8.75 0.194824C9.13546 0.194824 9.51407 0.296675 9.8475 0.490064L16.41 4.29631C17.085 4.68756 17.5 5.40881 17.5 6.18881V9.06256C17.5 9.3112 17.4012 9.54966 17.2254 9.72548C17.0496 9.90129 16.8111 10.0001 16.5625 10.0001C16.3139 10.0001 16.0754 9.90129 15.8996 9.72548C15.7238 9.54966 15.625 9.3112 15.625 9.06256V7.09631L9.6875 10.5401V18.5201C9.68753 18.7397 9.62966 18.9556 9.51973 19.1457C9.4098 19.3359 9.25169 19.4938 9.06132 19.6034C8.87095 19.7131 8.65505 19.7706 8.43538 19.7702C8.2157 19.7699 7.99999 19.7116 7.81 19.6013L1.09 15.7038C0.758439 15.5115 0.483227 15.2355 0.291927 14.9033C0.100628 14.5712 -4.19413e-05 14.1946 1.31081e-08 13.8113L1.31081e-08 6.18881C1.31081e-08 5.40881 0.415 4.68881 1.09 4.29631L7.6525 0.490064ZM8.90625 2.11256L14.6938 5.46881L8.75 8.91631L2.80625 5.46881L8.59375 2.11256C8.64126 2.08514 8.69514 2.0707 8.75 2.0707C8.80486 2.0707 8.85874 2.08514 8.90625 2.11256ZM1.875 13.8113V7.09631L7.8125 10.5401V17.4351L2.03125 14.0813C1.98384 14.0539 1.94445 14.0146 1.91702 13.9672C1.8896 13.9198 1.87511 13.8661 1.875 13.8113ZM15.41 18.4163C15.2386 18.5965 15.1458 18.8374 15.152 19.086C15.1582 19.3346 15.2629 19.5705 15.4431 19.7419C15.6233 19.9133 15.8642 20.0061 16.1128 19.9999C16.3614 19.9937 16.5974 19.889 16.7687 19.7088L19.7413 16.5838C19.9071 16.4095 19.9996 16.1781 19.9996 15.9376C19.9996 15.697 19.9071 15.4656 19.7413 15.2913L16.7687 12.1663C16.5974 11.9861 16.3614 11.8814 16.1128 11.8752C15.8642 11.869 15.6233 11.9618 15.4431 12.1332C15.2629 12.3046 15.1582 12.5405 15.152 12.7891C15.1458 13.0377 15.2386 13.2786 15.41 13.4588L16.8763 15.0001H12.8125C12.5639 15.0001 12.3254 15.0988 12.1496 15.2747C11.9738 15.4505 11.875 15.6889 11.875 15.9376C11.875 16.1862 11.9738 16.4247 12.1496 16.6005C12.3254 16.7763 12.5639 16.8751 12.8125 16.8751H16.8763L15.41 18.4163Z" fill="#3A84E3"/>
</svg>
