<svg width="22" height="22" viewBox="0 0 22 22" fill="none" xmlns="http://www.w3.org/2000/svg">
<path d="M18.7763 3.22367C16.702 1.1449 13.9363 0 11 0C8.06367 0 5.29796 1.1449 3.22367 3.22367C1.14939 5.30245 0 8.06367 0 11C0 13.9363 1.1449 16.702 3.22367 18.7763C5.30245 20.8506 8.06367 22 11 22C13.9363 22 16.702 20.8551 18.7763 18.7763C20.8506 16.6976 22 13.9363 22 11C22 8.06367 20.8551 5.29796 18.7763 3.22367ZM21.0033 10.5061H16.738C16.6975 8.80898 16.4596 7.17469 16.042 5.72449C16.8547 5.30694 17.6135 4.78163 18.3094 4.16204C19.8808 5.84122 20.882 8.05918 21.0033 10.5061ZM11.4939 11.4939H15.7547C15.7188 13.0563 15.5033 14.5514 15.1306 15.8894C13.9812 15.4269 12.7555 15.1575 11.4939 15.0992V11.4939ZM17.6 3.4751C17.0253 3.98245 16.3967 4.41347 15.7322 4.77265C15.5616 4.29673 15.3686 3.84776 15.1531 3.42571C14.7265 2.58163 14.2416 1.8902 13.7073 1.36041C15.1665 1.76898 16.491 2.50082 17.6 3.4751ZM11.4939 1.14041C12.522 1.36939 13.4918 2.31673 14.2731 3.86122C14.4841 4.27878 14.6727 4.72327 14.8388 5.19469C13.7837 5.6302 12.6567 5.88612 11.4939 5.94449V1.14041ZM15.1351 6.14204C15.5033 7.47102 15.7143 8.95714 15.7502 10.5106H11.4939V6.93673C12.76 6.87837 13.9857 6.60449 15.1351 6.14204ZM10.5061 10.5061H6.24531C6.28122 8.95265 6.49225 7.46653 6.86041 6.13755C8.0098 6.60449 9.24 6.87388 10.5016 6.92776V10.5061H10.5061ZM10.5106 1.14041V5.94449C9.34776 5.88612 8.21633 5.6302 7.16571 5.19469C7.33184 4.72327 7.52041 4.27878 7.73143 3.86122C8.51265 2.31673 9.48245 1.36939 10.5106 1.14041ZM8.29714 1.36041C7.76286 1.8902 7.27796 2.58612 6.85143 3.42571C6.64041 3.84776 6.44735 4.29673 6.27224 4.77265C5.60775 4.41347 4.98367 3.98245 4.40449 3.4751C5.51347 2.50082 6.83796 1.76898 8.29714 1.36041ZM3.6951 4.16204C4.39102 4.78163 5.1498 5.30245 5.96245 5.72449C5.5449 7.17918 5.30245 8.80898 5.26653 10.5061H1.00122C1.12245 8.05918 2.12367 5.84122 3.6951 4.16204ZM1.00122 11.4939H5.26653C5.30694 13.2045 5.54939 14.8433 5.97143 16.3024C5.16327 16.72 4.40449 17.2363 3.71306 17.8559C2.12816 16.1722 1.12245 13.9498 1.00122 11.4939ZM4.42245 18.5429C4.99714 18.04 5.62122 17.609 6.28122 17.2543C6.45184 17.7167 6.64041 18.1612 6.85143 18.5743C7.27796 19.4184 7.76286 20.1098 8.29714 20.6441C6.84694 20.2355 5.52694 19.5082 4.42245 18.5429ZM10.5106 20.8596C9.48245 20.6306 8.51265 19.6833 7.73143 18.1388C7.5249 17.7302 7.34082 17.2947 7.17469 16.8322C8.22531 16.3967 9.35225 16.1408 10.5106 16.0869V20.8596ZM6.87388 15.8894C6.50122 14.5514 6.28571 13.0563 6.2498 11.4939H10.5106V15.0992C9.24898 15.1531 8.02327 15.4224 6.87388 15.8894ZM11.4984 20.8596V16.0869C12.6567 16.1453 13.7837 16.3967 14.8343 16.8322C14.6682 17.2947 14.4841 17.7302 14.2776 18.1388C13.4963 19.6833 12.5265 20.6306 11.4984 20.8596ZM13.7118 20.6396C14.2461 20.1098 14.731 19.4139 15.1576 18.5698C15.3686 18.1567 15.5571 17.7122 15.7278 17.2498C16.3878 17.6045 17.0118 18.0355 17.5865 18.5384C16.482 19.5082 15.162 20.2355 13.7118 20.6396ZM18.3004 17.8559C17.609 17.2408 16.8502 16.72 16.042 16.3024C16.4641 14.8433 16.7065 13.2 16.7469 11.4939H21.0122C20.8865 13.9498 19.8808 16.1722 18.3004 17.8559Z" fill="white"/>
</svg>
