<svg width="114" height="114" viewBox="0 0 114 114" fill="none" xmlns="http://www.w3.org/2000/svg">
  <path d="M15.1507 10.1217C16.0754 10.1217 16.8247 9.3722 16.8247 8.44768V4.51992C16.8247 3.87374 17.3504 3.34809 17.9968 3.34809H29.0451C29.6915 3.34809 30.2171 3.87374 30.2171 4.51992V8.44768C30.2171 9.3722 30.9664 10.1217 31.8912 10.1217C32.8159 10.1217 33.5652 9.3722 33.5652 8.44768V4.51992C33.5652 2.0276 31.5374 0 29.0451 0H17.9968C15.5045 0 13.4767 2.0276 13.4767 4.51992V8.44768C13.4767 9.3722 14.2262 10.1217 15.1507 10.1217Z" fill="#3A84E3"/>
  <path d="M109.481 78.9236H36.5498L38.0104 77.4628C38.6642 76.809 38.6642 75.7489 38.0104 75.0953C37.3566 74.4417 36.2969 74.4413 35.6429 75.0953L33.5653 77.1728V38.5826C33.5653 37.658 32.816 36.9084 31.8912 36.9084C30.9665 36.9084 30.2172 37.658 30.2172 38.5826V80.5211L27.8409 82.8973C27.1872 83.5511 27.1872 84.6112 27.8409 85.2648C28.1679 85.5918 28.5963 85.7552 29.0248 85.7552C29.4531 85.7552 29.8817 85.5918 30.2087 85.2648L33.2014 82.2719H109.481C110.127 82.2719 110.653 82.7975 110.653 83.4438V94.4929C110.653 95.1391 110.127 95.6648 109.481 95.6648H23.521C22.4429 95.6648 21.4244 95.4072 20.5216 94.9527L22.4072 93.067C23.061 92.4132 23.061 91.3531 22.4072 90.6995C21.7532 90.0457 20.6934 90.0457 20.0396 90.6995L17.9946 92.7444C17.2574 91.6685 16.8248 90.3683 16.8248 88.9684V56.6328C16.8248 55.7082 16.0755 54.9587 15.1508 54.9587C14.226 54.9587 13.4767 55.7082 13.4767 56.6328V88.9684C13.4767 91.2926 14.2722 93.4331 15.6023 95.1369L12.2377 98.5017C11.5839 99.1555 11.5839 100.216 12.2377 100.869C12.5647 101.196 12.993 101.36 13.4216 101.36C13.8499 101.36 14.2785 101.196 14.6055 100.869L18.0734 97.401C19.6439 98.4194 21.5139 99.0133 23.521 99.0133H109.481C111.973 99.0133 114.001 96.9856 114.001 94.4931V83.444C114.001 80.9515 111.973 78.9236 109.481 78.9236Z" fill="#3A84E3"/>
  <path d="M13.4767 38.5826V49.498C13.4767 50.4226 14.226 51.1722 15.1507 51.1722C16.0754 51.1722 16.8247 50.4226 16.8247 49.498V38.5826C16.8247 37.658 16.0754 36.9084 15.1507 36.9084C14.226 36.9084 13.4767 37.658 13.4767 38.5826Z" fill="#3A84E3"/>
  <path d="M4.52674 33.5606H77.175L74.651 36.0848C73.9972 36.7386 73.9972 37.7986 74.651 38.4522C74.978 38.779 75.4065 38.9426 75.8348 38.9426C76.2632 38.9426 76.6917 38.7792 77.0187 38.4522L78.926 36.5448V54.8904C78.926 55.8149 79.6753 56.5645 80.6001 56.5645C81.5248 56.5645 82.2741 55.8149 82.2741 54.8904V33.1965L84.8205 30.65C85.4742 29.9962 85.4742 28.9361 84.8205 28.2826C84.1665 27.6287 83.1067 27.6287 82.4529 28.2826L80.5233 30.2123H4.52674C3.88033 30.2123 3.35468 29.6866 3.35468 29.0404V17.991C3.35468 17.3448 3.88033 16.8191 4.52674 16.8191H88.9701C90.3698 16.8191 91.67 17.2515 92.7458 17.9888L90.2544 20.4803C89.6006 21.1342 89.6006 22.1942 90.2544 22.8478C90.5814 23.1746 91.01 23.3382 91.4383 23.3382C91.8666 23.3382 92.2952 23.1748 92.6222 22.8478L94.9542 20.5156C95.4089 21.4188 95.6665 22.4373 95.6665 23.5155V73.9013C95.6665 74.8259 96.4158 75.5755 97.3405 75.5755C98.2653 75.5755 99.0146 74.8259 99.0146 73.9013V23.5157C99.0146 21.5085 98.4204 19.6384 97.4021 18.0676L100.424 15.0458C101.077 14.392 101.077 13.332 100.423 12.6784C99.7699 12.0243 98.7099 12.0246 98.0561 12.6784L95.1382 15.5965C93.4344 14.2664 91.2941 13.471 88.9703 13.471H4.52674C2.03442 13.471 0.0065918 15.4988 0.0065918 17.9912V29.0404C0.006815 31.5326 2.03442 33.5606 4.52674 33.5606Z" fill="#3A84E3"/>
  <path d="M80.6001 60.3505C79.6754 60.3505 78.9261 61.1 78.9261 62.0246V73.9012C78.9261 74.8258 79.6754 75.5754 80.6001 75.5754C81.5249 75.5754 82.2742 74.8258 82.2742 73.9012V62.0246C82.2742 61.1 81.5247 60.3505 80.6001 60.3505Z" fill="#3A84E3"/>
  <path d="M97.3406 102.362C96.4159 102.362 95.6666 103.111 95.6666 104.036V109.48C95.6666 110.126 95.1409 110.652 94.4945 110.652H83.446C82.7998 110.652 82.2742 110.126 82.2742 109.48V104.036C82.2742 103.111 81.5249 102.362 80.6001 102.362C79.6754 102.362 78.9261 103.111 78.9261 104.036V109.48C78.9261 111.972 80.9537 114 83.446 114H94.4945C96.9868 114 99.0146 111.972 99.0146 109.48V104.036C99.0146 103.111 98.2651 102.362 97.3406 102.362Z" fill="#3A84E3"/>
  <path d="M4.43594 106.304L0.490328 110.25C-0.163443 110.904 -0.163443 111.964 0.490328 112.617C0.817325 112.944 1.24588 113.108 1.67421 113.108C2.10255 113.108 2.5311 112.944 2.8581 112.617L6.80394 108.672C7.45771 108.018 7.45771 106.958 6.80394 106.304C6.14972 105.651 5.08994 105.651 4.43594 106.304Z" fill="#3A84E3"/>
  <path d="M66.8496 43.8866L59.0478 51.6883C58.3941 52.3421 58.3941 53.4021 59.0478 54.0556C59.3748 54.3826 59.8032 54.546 60.2317 54.546C60.66 54.546 61.0886 54.3826 61.4156 54.0556L69.2173 46.2539C69.8711 45.6001 69.8711 44.5401 69.2173 43.8866C68.5636 43.233 67.5038 43.2326 66.8496 43.8866Z" fill="#3A84E3"/>
  <path d="M51.2461 59.4909L43.4446 67.2926C42.7908 67.9463 42.7908 69.0064 43.4446 69.6599C43.7715 69.9867 44.1999 70.1503 44.6284 70.1503C45.0568 70.1503 45.4853 69.9869 45.8123 69.6599L53.6138 61.8582C54.2676 61.2044 54.2676 60.1444 53.6138 59.4909C52.9596 58.8371 51.8998 58.8373 51.2461 59.4909Z" fill="#3A84E3"/>
  <path d="M107.042 7.73369C107.47 7.73369 107.899 7.57031 108.226 7.24331L112.172 3.29747C112.825 2.6437 112.825 1.58369 112.172 0.930147C111.518 0.276377 110.458 0.276377 109.804 0.930147L105.858 4.87598C105.204 5.52976 105.204 6.58976 105.858 7.24331C106.185 7.57008 106.613 7.73369 107.042 7.73369Z" fill="#3A84E3"/>
</svg>
