<svg width="20" height="24" viewBox="0 0 20 24" fill="none" xmlns="http://www.w3.org/2000/svg">
  <path d="M10.8204 0.799805C11.3772 0.800295 11.911 1.02187 12.3044 1.4158L17.7854 6.8954C18.1788 7.28908 18.3999 7.82284 18.4 8.3794V10.7146C18.8091 10.8596 19.1633 11.1278 19.4137 11.4823C19.6642 11.8368 19.7987 12.2602 19.7986 12.6942V18.2984C19.7987 18.7325 19.6642 19.1558 19.4137 19.5103C19.1633 19.8648 18.8091 20.133 18.4 20.278V20.3998C18.4 21.1424 18.105 21.8546 17.5799 22.3797C17.0548 22.9048 16.3426 23.1998 15.6 23.1998H4.40002C3.65741 23.1998 2.94522 22.9048 2.42012 22.3797C1.89502 21.8546 1.60002 21.1424 1.60002 20.3998V20.278C1.19089 20.133 0.836744 19.8648 0.586288 19.5103C0.335832 19.1558 0.201375 18.7325 0.201416 18.2984V12.6942C0.201375 12.2602 0.335832 11.8368 0.586288 11.4823C0.836744 11.1278 1.19089 10.8596 1.60002 10.7146V3.5998C1.60002 2.8572 1.89502 2.14501 2.42012 1.61991C2.94522 1.0948 3.65741 0.799805 4.40002 0.799805H10.8204ZM17 20.3984H3.00002C3.00002 21.1166 3.54042 21.7088 4.23622 21.79L4.40002 21.7998H15.6C15.9431 21.7997 16.2743 21.6736 16.5306 21.4455C16.7868 21.2173 16.9504 20.903 16.9902 20.5622L17 20.3984ZM17.6986 11.9942H2.30002C2.11436 11.9942 1.93632 12.068 1.80504 12.1992C1.67377 12.3305 1.60002 12.5086 1.60002 12.6942V18.2984C1.60002 18.4841 1.67377 18.6621 1.80504 18.7934C1.93632 18.9247 2.11436 18.9984 2.30002 18.9984H17.7C17.8857 18.9984 18.0637 18.9247 18.195 18.7934C18.3263 18.6621 18.4 18.4841 18.4 18.2984V12.6942C18.4 12.5086 18.3263 12.3305 18.195 12.1992C18.0637 12.068 17.8857 11.9942 17.7 11.9942H17.6986ZM6.26622 13.3998C6.68396 13.4 7.08575 13.5603 7.38901 13.8476C7.69226 14.1349 7.87394 14.5274 7.89671 14.9446C7.91948 15.3617 7.7816 15.7717 7.51141 16.0903C7.24122 16.4089 6.85926 16.6119 6.44402 16.6576L6.26622 16.6674H5.80002V16.8998C5.80034 17.0747 5.73516 17.2434 5.6173 17.3727C5.49945 17.502 5.33747 17.5824 5.16327 17.5982C4.98906 17.614 4.81524 17.564 4.67605 17.4581C4.53686 17.3521 4.44238 17.1979 4.41122 17.0258L4.40002 16.8998V14.0998C4.39996 13.936 4.45738 13.7773 4.56226 13.6514C4.66715 13.5256 4.81286 13.4405 4.97402 13.411L5.10002 13.3998H6.26622ZM14.8986 13.3998C15.0843 13.3998 15.2623 13.4736 15.3936 13.6048C15.5249 13.7361 15.5986 13.9142 15.5986 14.0998C15.5986 14.2855 15.5249 14.4635 15.3936 14.5948C15.2623 14.7261 15.0843 14.7998 14.8986 14.7998H14.2V15.2688H14.8986C15.0843 15.2688 15.2623 15.3426 15.3936 15.4738C15.5249 15.6051 15.5986 15.7832 15.5986 15.9688C15.5986 16.1545 15.5249 16.3325 15.3936 16.4638C15.2623 16.5951 15.0843 16.6688 14.8986 16.6688H14.2V16.8984C14.2002 16.9903 14.1823 17.0814 14.1473 17.1664C14.1123 17.2514 14.0609 17.3287 13.996 17.3938C13.865 17.5253 13.6871 17.5994 13.5014 17.5998C13.3158 17.6002 13.1376 17.5268 13.006 17.3958C12.8745 17.2648 12.8004 17.0869 12.8 16.9012V14.0998C12.8004 13.9144 12.8743 13.7367 13.0055 13.6057C13.1368 13.4748 13.3146 13.4012 13.5 13.4012H14.8986V13.3998ZM10 13.3998C10.5393 13.4001 11.0578 13.6078 11.4482 13.98C11.8385 14.3521 12.0706 14.8602 12.0966 15.3989C12.1225 15.9376 11.9401 16.4656 11.5874 16.8735C11.2346 17.2814 10.7384 17.538 10.2016 17.59L10 17.5998H9.29862C9.13478 17.5999 8.97612 17.5424 8.85025 17.4376C8.72439 17.3327 8.63931 17.187 8.60982 17.0258L8.59862 16.8998V14.0998C8.59856 13.936 8.65598 13.7773 8.76086 13.6514C8.86575 13.5256 9.01146 13.4405 9.17262 13.411L9.29862 13.3998H10ZM10.126 14.811L9.99862 14.7998V16.1998C10.1735 16.2001 10.3422 16.1349 10.4715 16.0171C10.6008 15.8992 10.6812 15.7373 10.697 15.5631C10.7128 15.3888 10.6629 15.215 10.5569 15.0758C10.451 14.9366 10.2967 14.8422 10.1246 14.811H10.126ZM6.26622 14.7998H5.80002V15.2674H6.26622C6.32144 15.267 6.37476 15.2472 6.41672 15.2113C6.45868 15.1753 6.48658 15.1257 6.49547 15.0712C6.50435 15.0167 6.49366 14.9608 6.46528 14.9135C6.4369 14.8661 6.39267 14.8303 6.34042 14.8124L6.26622 14.7998ZM10 2.1998H4.40002C4.05711 2.19985 3.72614 2.32574 3.4699 2.55361C3.21365 2.78147 3.04994 3.09545 3.00982 3.436L3.00002 3.5998V10.5942H17V9.1998H12.1C11.578 9.19978 11.0747 9.00532 10.6882 8.65434C10.3018 8.30336 10.0599 7.82103 10.0098 7.3014L10 7.0998V2.1998ZM11.4 2.4896V7.0998C11.4 7.26364 11.4574 7.4223 11.5623 7.54817C11.6671 7.67403 11.8129 7.75911 11.974 7.7886L12.1 7.7998H16.7102L11.4 2.4896Z" fill="#3A84E3"/>
</svg>
