<svg width="40" height="34" viewBox="0 0 40 34" fill="none" xmlns="http://www.w3.org/2000/svg">
  <g clip-path="url(#clip0)">
    <path d="M39.4846 28.7495L23.0773 1.53916C22.4309 0.467207 21.2518 -0.19873 20 -0.19873C18.7482 -0.19873 17.569 0.467207 16.9225 1.53924L0.515269 28.7495C-0.152778 29.8574 -0.172544 31.2456 0.463628 32.3721C1.09996 33.4987 2.29886 34.1985 3.59261 34.1985H36.4073C37.701 34.1985 38.9 33.4987 39.5364 32.3721C40.1725 31.2454 40.1528 29.8573 39.4846 28.7495ZM37.2687 31.0915C37.0935 31.4016 36.7635 31.5943 36.4073 31.5943H3.59261C3.23644 31.5943 2.90636 31.4017 2.73128 31.0916C2.55613 30.7814 2.5616 30.3992 2.74543 30.0943L19.1528 2.884C19.3308 2.58893 19.6554 2.40557 20 2.40557C20.3446 2.40557 20.6692 2.58893 20.8471 2.884L37.2544 30.0943C37.4384 30.3993 37.4439 30.7814 37.2687 31.0915Z" fill="white"/>
    <path d="M20.012 10.5161C19.0214 10.5161 18.2483 11.0477 18.2483 11.99C18.2483 14.8652 18.5865 18.9967 18.5865 21.872C18.5866 22.621 19.239 22.935 20.0121 22.935C20.592 22.935 21.4134 22.621 21.4134 21.872C21.4134 18.9968 21.7516 14.8653 21.7516 11.99C21.7516 11.0478 20.9544 10.5161 20.012 10.5161Z" fill="white"/>
    <path d="M20.0364 24.6021C18.9733 24.6021 18.1759 25.4477 18.1759 26.4625C18.1759 27.4531 18.9732 28.323 20.0364 28.323C21.027 28.323 21.8727 27.4531 21.8727 26.4625C21.8727 25.4477 21.0269 24.6021 20.0364 24.6021Z" fill="white"/>
  </g>
  <defs>
    <clipPath id="clip0">
      <rect width="40" height="34" fill="white"/>
    </clipPath>
  </defs>
</svg>
