<svg width="80" height="80" viewBox="0 0 80 80" fill="none" xmlns="http://www.w3.org/2000/svg">
  <g filter="url(#filter0_d)">
    <rect x="16" y="8" width="48" height="48" rx="24" fill="#3A84E3"/>
  </g>
  <path d="M54 44.1146L47.5089 37.6235C49.272 35.4468 50.3334 32.6796 50.3334 29.6667C50.3334 22.6823 44.651 17 37.6667 17C30.6823 17 25 22.6823 25 29.6667C25 36.6511 30.6823 42.3334 37.6667 42.3334C40.6796 42.3334 43.4468 41.272 45.6235 39.509L52.1146 46.0001C52.3751 46.2604 52.7971 46.2604 53.0575 46.0001L54.0001 45.0574C54.2604 44.7971 54.2604 44.3749 54 44.1146ZM37.6667 39.6667C32.1524 39.6667 27.6667 35.181 27.6667 29.6667C27.6667 24.1524 32.1524 19.6667 37.6667 19.6667C43.181 19.6667 47.6667 24.1524 47.6667 29.6667C47.6667 35.181 43.181 39.6667 37.6667 39.6667Z" fill="white"/>
  <line x1="37.5" y1="25.5" x2="37.5" y2="33.5" stroke="white" stroke-linecap="round" stroke-linejoin="round"/>
  <line x1="33.5" y1="29.5" x2="41.5" y2="29.5" stroke="white" stroke-linecap="round" stroke-linejoin="round"/>
  <defs>
    <filter id="filter0_d" x="0" y="0" width="80" height="80" filterUnits="userSpaceOnUse" color-interpolation-filters="sRGB">
      <feFlood flood-opacity="0" result="BackgroundImageFix"/>
      <feColorMatrix in="SourceAlpha" type="matrix" values="0 0 0 0 0 0 0 0 0 0 0 0 0 0 0 0 0 0 127 0"/>
      <feOffset dy="8"/>
      <feGaussianBlur stdDeviation="8"/>
      <feColorMatrix type="matrix" values="0 0 0 0 0.254902 0 0 0 0 0.392157 0 0 0 0 0.560784 0 0 0 0.16 0"/>
      <feBlend mode="normal" in2="BackgroundImageFix" result="effect1_dropShadow"/>
      <feBlend mode="normal" in="SourceGraphic" in2="effect1_dropShadow" result="shape"/>
    </filter>
  </defs>
</svg>
