<?xml version="1.0" encoding="utf-8"?>
<!-- Generator: Adobe Illustrator 23.0.0, SVG Export Plug-In . SVG Version: 6.00 Build 0)  -->
<svg version="1.1" id="_x31_" xmlns="http://www.w3.org/2000/svg" xmlns:xlink="http://www.w3.org/1999/xlink" x="0px" y="0px"
	 viewBox="0 0 160.9 58.1" style="enable-background:new 0 0 160.9 58.1;" xml:space="preserve">
<style type="text/css">
	.st0{fill:#010101;}
	.st1{fill:#004F9E;}
</style>
<g>
	<path class="st0" d="M7.6,49.7l-0.2-1.6h-4l-0.9,1.6H0l5.7-9.4h2.5l1.5,9.4H7.6z M6.6,42.3l-2.3,4h2.9L6.6,42.3z"/>
	<polygon class="st0" points="10.6,49.7 12.6,40.3 14.4,40.3 12.3,49.7 	"/>
	<path class="st0" d="M17.4,42.9L16.5,47c0,0.1-0.1,0.3-0.1,0.4c0,0.6,0.5,0.9,1.1,0.9c0.6,0,1.2-0.4,1.6-0.8l1-4.6H22l-1.5,6.8
		h-1.8l0.2-0.9c-0.5,0.5-1.3,1.1-2.3,1.1c-1.3,0-2.1-0.7-2.1-1.7c0-0.1,0-0.4,0.1-0.5l1-4.7H17.4z"/>
	<path class="st0" d="M30.6,49.7l0.9-4.1c0-0.1,0.1-0.3,0.1-0.4c0-0.5-0.4-0.8-1-0.8c-0.5,0-1.1,0.4-1.4,0.8l-1,4.6h-1.8l0.9-4.1
		c0-0.1,0.1-0.3,0.1-0.5c0-0.4-0.4-0.8-1-0.8c-0.5,0-1.1,0.4-1.4,0.8l-1,4.6h-1.8l1.5-6.8h1.8l-0.2,0.9c0.4-0.4,1.1-1.1,2.1-1.1
		c1.3,0,1.9,1,1.9,1.2v0c0.5-0.7,1.3-1.2,2.3-1.2c1,0,1.9,0.6,1.9,1.7c0,0.2,0,0.4-0.1,0.6l-1,4.7H30.6z"/>
	<path class="st0" d="M34.2,49.7l1.5-6.8h1.8l-1.5,6.8H34.2z M35.9,41.3c0-0.8,0.7-1.2,1.2-1.2c0.6,0,1,0.4,1,0.9
		c0,0.8-0.7,1.2-1.2,1.2C36.3,42.2,35.9,41.8,35.9,41.3"/>
	<path class="st0" d="M42.3,49.7l0.9-4c0-0.1,0.1-0.3,0.1-0.4c0-0.6-0.5-0.9-1-0.9c-0.7,0-1.3,0.4-1.7,0.8l-1,4.6h-1.8l1.5-6.8H41
		l-0.2,0.9c0.5-0.5,1.3-1.1,2.3-1.1c1.3,0,2.1,0.7,2.1,1.7c0,0.1,0,0.4-0.1,0.6l-1,4.7H42.3z"/>
	<path class="st0" d="M45.8,49.7l1.5-6.8h1.8l-1.5,6.8H45.8z M47.5,41.3c0-0.8,0.7-1.2,1.2-1.2c0.6,0,1,0.4,1,0.9
		c0,0.8-0.7,1.2-1.2,1.2C47.9,42.2,47.5,41.8,47.5,41.3"/>
	<path class="st0" d="M52.7,42.9L51.7,47c0,0.1-0.1,0.3-0.1,0.4c0,0.6,0.5,0.9,1.1,0.9c0.6,0,1.2-0.4,1.6-0.8l1-4.6h1.8l-1.5,6.8
		h-1.8l0.2-0.9c-0.5,0.5-1.3,1.1-2.3,1.1c-1.3,0-2.1-0.7-2.1-1.7c0-0.1,0-0.4,0.1-0.5l1-4.7H52.7z"/>
	<path class="st0" d="M65.9,49.7l0.9-4.1c0-0.1,0.1-0.3,0.1-0.4c0-0.5-0.4-0.8-1-0.8c-0.5,0-1.1,0.4-1.4,0.8l-1,4.6h-1.8l0.9-4.1
		c0-0.1,0.1-0.3,0.1-0.5c0-0.4-0.4-0.8-1-0.8c-0.5,0-1.1,0.4-1.4,0.8l-1,4.6h-1.8l1.5-6.8h1.8l-0.2,0.9c0.4-0.4,1.1-1.1,2.1-1.1
		c1.3,0,1.9,1,1.9,1.2v0c0.5-0.7,1.3-1.2,2.3-1.2c1,0,1.9,0.6,1.9,1.7c0,0.2,0,0.4-0.1,0.6l-1,4.7H65.9z"/>
	<path class="st0" d="M73.1,49.7l2.1-9.4h3.6c2.1,0,4.1,1.6,4.1,4c0,2.5-1.7,5.3-6.1,5.3H73.1z M77.1,47.9c2.3,0,3.6-1.6,3.6-3.4
		c0-1.4-1-2.4-2.4-2.4h-1.6l-1.3,5.8H77.1L77.1,47.9z"/>
	<path class="st0" d="M83.3,46.8c0-2.2,1.7-4.1,3.9-4.1c1.7,0,3,1.1,3,3c0,0.4-0.1,0.9-0.1,1.1h-5V47c0,0.6,0.6,1.4,1.9,1.4
		c0.6,0,1.3-0.2,1.7-0.5l0.6,1.2c-0.7,0.4-1.6,0.7-2.4,0.7C84.7,49.9,83.3,48.7,83.3,46.8 M88.7,45.7v-0.1c0-0.7-0.5-1.4-1.6-1.4
		c-1,0-1.7,0.8-1.8,1.5H88.7z"/>
	<path class="st0" d="M91.1,46.8c0-2.2,1.7-4,3.9-4c1.4,0,2.3,0.6,2.7,1.3l-1.3,1c-0.3-0.5-0.8-0.8-1.4-0.8c-1.3,0-2.1,1.1-2.1,2.4
		c0,1,0.8,1.6,1.7,1.6c0.6,0,1.1-0.3,1.4-0.7l1,1.2c-0.5,0.5-1.4,1.1-2.6,1.1C92.4,49.9,91.1,48.6,91.1,46.8"/>
	<path class="st0" d="M98.1,46.8c0-2.1,1.6-4,3.9-4c2.2,0,3.4,1.3,3.4,3.1c0,2.1-1.6,4-3.9,4C99.3,49.9,98.1,48.6,98.1,46.8
		 M103.5,45.9c0-1-0.6-1.6-1.6-1.6c-1.2,0-2,1.1-2,2.4c0,1,0.6,1.6,1.6,1.6C102.7,48.3,103.5,47.1,103.5,45.9"/>
	<path class="st0" d="M105.9,49.7l1.5-6.8h1.8l-0.2,0.9c0.6-0.6,1.3-1.1,2.4-1.1l-0.4,1.8c-0.1,0-0.4-0.1-0.6-0.1
		c-0.7,0-1.3,0.4-1.7,0.8l-1,4.4H105.9z"/>
	<path class="st0" d="M114.4,48.1l1.2-1.5c0.6,0.9,1.9,1.5,3.2,1.5c1,0,1.4-0.6,1.4-1.1c0-1.3-4.5-1.1-4.5-3.8c0-1.5,1.3-3,3.7-3
		c1.5,0,2.9,0.5,3.7,1.5l-1.2,1.4c-0.7-0.8-1.8-1.2-2.8-1.2c-0.7,0-1.2,0.4-1.2,1c0,1.2,4.6,1.1,4.6,3.8c0,1.7-1.4,3.2-3.7,3.2
		C116.8,49.9,115.2,49.1,114.4,48.1"/>
	<path class="st0" d="M122.5,50.7c0.2,0.1,0.4,0.1,0.7,0.1c0.4,0,0.6-0.1,0.8-0.5l0.4-0.6l-1.2-6.8h1.9l0.7,4.7l2.8-4.7h2l-4.9,7.9
		c-0.7,1.2-1.5,1.6-2.6,1.6c-0.4,0-0.8-0.1-1.1-0.2L122.5,50.7z"/>
	<path class="st0" d="M129.7,48.6l1-1.2c0.4,0.5,1.4,1.1,2.4,1.1c0.6,0,1-0.4,1-0.7c0-1-3.4-0.7-3.4-2.8c0-1.2,1-2.3,2.8-2.3
		c1.1,0,2.2,0.4,2.9,1.1l-0.9,1.1c-0.3-0.4-1.2-0.9-2-0.9c-0.6,0-1,0.3-1,0.7c0,0.9,3.4,0.7,3.4,2.7c0,1.3-1.1,2.4-2.9,2.4
		C131.6,49.9,130.4,49.4,129.7,48.6"/>
	<path class="st0" d="M137.3,48.4c0-0.1,0-0.3,0.1-0.5l0.8-3.5H137l0.3-1.5h1.1l0.4-1.9h1.8l-0.4,1.9h1.4l-0.4,1.5h-1.4l-0.6,2.9
		c0,0.1,0,0.2,0,0.3c0,0.4,0.2,0.6,0.7,0.6c0.2,0,0.4-0.1,0.5-0.1l0.1,1.4c-0.3,0.2-0.7,0.3-1.1,0.3
		C138.1,49.9,137.3,49.4,137.3,48.4"/>
	<path class="st0" d="M141.6,46.8c0-2.2,1.7-4.1,3.9-4.1c1.7,0,3,1.1,3,3c0,0.4-0.1,0.9-0.1,1.1h-5V47c0,0.6,0.6,1.4,1.9,1.4
		c0.6,0,1.3-0.2,1.7-0.5l0.6,1.2c-0.7,0.4-1.6,0.7-2.4,0.7C143,49.9,141.6,48.7,141.6,46.8 M147,45.7v-0.1c0-0.7-0.5-1.4-1.6-1.4
		c-1,0-1.7,0.8-1.8,1.5H147z"/>
	<path class="st0" d="M157.5,49.7l0.9-4.1c0-0.1,0.1-0.3,0.1-0.4c0-0.5-0.4-0.8-1-0.8c-0.5,0-1.1,0.4-1.4,0.8l-1,4.6h-1.8l0.9-4.1
		c0-0.1,0.1-0.3,0.1-0.5c0-0.4-0.4-0.8-1-0.8c-0.5,0-1.1,0.4-1.4,0.8l-1,4.6h-1.8l1.5-6.8h1.8l-0.2,0.9c0.4-0.4,1.1-1.1,2.1-1.1
		c1.3,0,1.9,1,1.9,1.2v0c0.5-0.7,1.3-1.2,2.3-1.2c1,0,1.9,0.6,1.9,1.7c0,0.2,0,0.4-0.1,0.6l-1,4.7H157.5z"/>
	<path class="st1" d="M107.8,11.9l-4-5c-0.2-0.2-0.4-0.3-0.7-0.3H59.3c-0.4,0-0.8,0.3-0.8,0.7l-0.4,2.1l0,0l-4.7,24.2
		c-0.1,0.5,0.3,1,0.8,1h43.6c0.2,0,0.4-0.1,0.5-0.2l6.2-5.2c0.2-0.1,0.3-0.3,0.3-0.5l2.1-10.9l1-5.2C108,12.4,108,12.1,107.8,11.9
		 M85.4,13.3l-2.9,15.1c-0.1,0.4-0.4,0.7-0.8,0.7h-3.8c-0.5,0-0.9-0.5-0.8-1l2.9-15.1c0.1-0.4,0.4-0.7,0.8-0.7h3.8
		C85.1,12.2,85.5,12.7,85.4,13.3 M160.7,11.9l-4-5c-0.2-0.2-0.4-0.3-0.7-0.3h-38.6c-0.2,0-0.4,0.1-0.6,0.2l-6.2,5.2
		c-0.2,0.1-0.3,0.3-0.3,0.5l-1,4.9c0,0.2,0,0.5,0.2,0.7l4,5c0.2,0.2,0.4,0.3,0.7,0.3h21c0.5,0,0.9,0.5,0.8,1l-0.8,3.9
		c-0.1,0.4-0.4,0.7-0.8,0.7h-3.8c-0.5,0-0.9-0.5-0.8-1l0.1-0.8c0.1-0.5-0.3-1-0.8-1h-20.7c-0.4,0-0.8,0.3-0.8,0.7l-0.3,1.7
		c0,0.2,0,0.5,0.2,0.7l4,5c0.2,0.2,0.4,0.3,0.7,0.3h38.6c0.2,0,0.4-0.1,0.5-0.2l6.2-5.2c0.2-0.1,0.3-0.3,0.3-0.5l1-4.9
		c0-0.2,0-0.5-0.2-0.7l-4-5c-0.2-0.2-0.4-0.3-0.7-0.3h-21c-0.5,0-0.9-0.5-0.8-1l0.8-3.9c0.1-0.4,0.4-0.7,0.8-0.7h3.8
		c0.5,0,0.9,0.5,0.8,1l-0.1,0.8c-0.1,0.5,0.3,1,0.8,1h20.7c0.4,0,0.8-0.3,0.8-0.7l0.3-1.7C161,12.4,160.9,12.1,160.7,11.9
		 M54.5,11.9l-4-5c-0.2-0.2-0.4-0.3-0.7-0.3H11.2c-0.2,0-0.4,0.1-0.6,0.2L4.4,12c-0.2,0.1-0.3,0.3-0.3,0.5L0,33.7
		c-0.1,0.5,0.3,1,0.8,1h20.7c0.4,0,0.8-0.3,0.8-0.7l0.8-4.2c0.1-0.4,0.4-0.7,0.8-0.7h3.8c0.5,0,0.9,0.5,0.8,1l-0.7,3.6
		c-0.1,0.5,0.3,1,0.8,1h20.7c0.4,0,0.8-0.3,0.8-0.7l4.2-21.4C54.7,12.4,54.6,12.1,54.5,11.9 M32,13.3l-1.9,9.5
		c-0.1,0.4-0.4,0.7-0.8,0.7h-3.8c-0.5,0-0.9-0.5-0.8-1l1.9-9.5c0.1-0.4,0.4-0.7,0.8-0.7h3.8C31.7,12.2,32.2,12.7,32,13.3"/>
</g>
</svg>
