<svg id="SvgjsSvg1032" width="25" height="25" xmlns="http://www.w3.org/2000/svg" version="1.1" xmlns:xlink="http://www.w3.org/1999/xlink" xmlns:svgjs="http://svgjs.com/svgjs"><defs id="SvgjsDefs1033"></defs><g id="SvgjsG1034"><svg xmlns="http://www.w3.org/2000/svg" width="25" height="25" fill="none" viewBox="0 0 22 23"><path fill="#3a84e3" d="M6.05137 13.4596H19.6023L22 4.82813H18.4715L17.2046.881476 11.9213 2.60873 12.6439 4.82813H12.3952L11.0908.881476 5.80738 2.60873 6.52996 4.82813H3.70529L3.11878 2.46203C2.82317 1.27898 1.80028.441406.622542.441406H0V1.43042H.622542C1.35451 1.43042 1.99264 1.92256 2.18973 2.66553L4.7845 12.906C4.24958 13.294 3.89768 13.9281 3.89768 14.6522 3.89768 15.8352 4.87833 16.8242 6.05137 16.8242H19.2598V15.8352H6.05137C5.41324 15.8352 4.87833 15.291 4.87833 14.6522 4.87837 14.0038 5.41793 13.4596 6.05137 13.4596zM16.5712 2.11186L17.4533 4.7761H13.6386L13.099 3.24761 16.5712 2.11186zM10.4573 2.11186L11.3394 4.7761H7.52472L6.98512 3.24761 10.4573 2.11186zM20.7285 5.76511L18.8704 12.4754H5.66192L3.94927 5.76514 20.7285 5.76511zM14.9575 18.2959C13.8314 18.2959 12.9023 19.2329 12.9023 20.3686 12.9023 21.5043 13.8314 22.4413 14.9575 22.4413 16.1305 22.4413 17.0127 21.5043 17.0127 20.3686 17.0127 19.2329 16.0837 18.2959 14.9575 18.2959zM14.9575 21.5043C14.3194 21.5043 13.8314 20.9601 13.8314 20.3686 13.8314 19.725 14.371 19.2329 14.9575 19.2329 15.5956 19.2329 16.0836 19.725 16.0836 20.3686 16.0837 21.0122 15.544 21.5043 14.9575 21.5043zM7.42138 18.2959C6.29527 18.2959 5.36621 19.2329 5.36621 20.3686 5.36621 21.5043 6.29527 22.4413 7.42138 22.4413 8.54749 22.4413 9.47655 21.5043 9.47655 20.3686 9.47655 19.2329 8.54749 18.2959 7.42138 18.2959zM7.42138 21.5043C6.78325 21.5043 6.29527 20.9601 6.29527 20.3686 6.29527 19.725 6.83488 19.2329 7.42138 19.2329 8.00789 19.2329 8.54749 19.725 8.54749 20.3686 8.54749 21.0122 8.00789 21.5043 7.42138 21.5043z" class="colorfff svgShape"></path></svg></g></svg>