<svg width="22" height="23" viewBox="0 0 22 23" fill="none" xmlns="http://www.w3.org/2000/svg">
<path d="M20.4912 14.5268C20.1858 14.5268 19.9383 14.7734 19.9383 15.0775V19.967C19.9372 20.8791 19.1953 21.6182 18.2795 21.6191H2.76468C1.84888 21.6182 1.10695 20.8791 1.10587 19.967V5.61671C1.10695 4.70485 1.84888 3.96573 2.76468 3.96465H7.67415C7.97956 3.96465 8.22708 3.71813 8.22708 3.41397C8.22708 3.11001 7.97956 2.86328 7.67415 2.86328H2.76468C1.23849 2.865 0.00172792 4.09673 0 5.61671V19.9672C0.00172792 21.4872 1.23849 22.7189 2.76468 22.7207H18.2795C19.8057 22.7189 21.0424 21.4872 21.0442 19.9672V15.0775C21.0442 14.7734 20.7967 14.5268 20.4912 14.5268Z" fill="white"/>
<path d="M20.6232 1.44654C19.6515 0.478756 18.0761 0.478756 17.1043 1.44654L7.2396 11.2711C7.17199 11.3384 7.12318 11.4219 7.09769 11.5136L5.80045 16.1778C5.7471 16.3691 5.80131 16.5738 5.94214 16.7143C6.08318 16.8546 6.28881 16.9086 6.48082 16.8556L11.1641 15.5635C11.2562 15.5381 11.34 15.4895 11.4076 15.4221L21.2721 5.59734C22.2423 4.6289 22.2423 3.06117 21.2721 2.09274L20.6232 1.44654ZM8.44439 11.6291L16.5179 3.58819L19.1217 6.18136L11.0479 14.2222L8.44439 11.6291ZM7.92429 12.6685L10.0045 14.7404L7.12706 15.5344L7.92429 12.6685ZM20.4902 4.81863L19.9038 5.40266L17.2998 2.80928L17.8864 2.22525C18.4262 1.68768 19.3014 1.68768 19.8411 2.22525L20.4902 2.87144C21.0291 3.40965 21.0291 4.28064 20.4902 4.81863Z" fill="white"/>
</svg>
