<svg id="SvgjsSvg1037" width="25" height="25" xmlns="http://www.w3.org/2000/svg" version="1.1" xmlns:xlink="http://www.w3.org/1999/xlink" xmlns:svgjs="http://svgjs.com/svgjs"><defs id="SvgjsDefs1038"></defs><g id="SvgjsG1039"><svg xmlns="http://www.w3.org/2000/svg" width="25" height="25" fill="none" viewBox="0 0 22 23"><path fill="#3a84e3" d="M13.9782 5.68359H3.02441V6.61958H13.9782V5.68359zM12.9207 10.8315H3.02441V11.7675H12.9207V10.8315zM10.3762 15.9795H3.02441V16.9155H10.3762V15.9795z" class="colorfff svgShape"></path><path fill="#3a84e3" d="M22 3.1547C22 1.57973 20.7301 0.324257 19.1184 0.301758H2.11503C0.960537 0.301758 0 1.23774 0 2.36271V22.3018H17.1003V10.1745H22V3.1547ZM16.1398 21.3658H0.90974V2.35821C0.90974 1.75073 1.43619 1.23324 2.11041 1.23324H16.8879C16.4215 1.73723 16.1398 2.40771 16.1398 3.1547V21.3658ZM21.0903 9.23856H17.105L17.0588 3.1547C17.0588 2.22322 17.7422 1.43123 18.6427 1.23324H19.123V1.18824C20.2082 1.21524 21.0949 2.09272 21.0949 3.1547V9.23856H21.0903Z" class="colorfff svgShape"></path></svg></g></svg>