<svg width="22" height="23" viewBox="0 0 22 23" fill="none" xmlns="http://www.w3.org/2000/svg">
<path d="M16.3312 3.4338H11.8823C11.8256 3.43357 11.7715 3.40873 11.7333 3.36498L10.1188 1.51989C9.59512 0.922408 8.85571 0.581966 8.08031 0.581055H2.76156C1.23715 0.582878 0.00174492 1.87355 0 3.46615V19.696C0.00174492 21.2886 1.23715 22.5792 2.76156 22.5811H19.2384C20.7628 22.5792 21.9983 21.2886 22 19.696V9.2997C21.9983 7.7071 20.7628 6.41643 19.2384 6.4146H19.0927V6.3189C19.091 4.72629 17.8556 3.43562 16.3312 3.4338ZM3.01108 21.7644H2.76156C1.66858 21.763 0.783035 20.8376 0.781726 19.696V3.46615C0.783035 2.32428 1.66858 1.39912 2.76156 1.39775H8.08031C8.63606 1.39844 9.1663 1.64249 9.54168 2.07066L11.156 3.9162C11.3424 4.12881 11.6057 4.25004 11.8818 4.25049H16.331C17.4239 4.25186 18.3095 5.17703 18.3108 6.3189V6.4146H7.7527C6.22829 6.41643 4.99288 7.7071 4.99114 9.29993V19.696C4.98983 20.8376 4.10406 21.763 3.01108 21.7644ZM19.2384 7.2313C20.3314 7.23267 21.217 8.15783 21.2183 9.2997V19.696C21.217 20.8376 20.3314 21.763 19.2384 21.7644H4.93464C5.47077 21.222 5.77308 20.4755 5.77286 19.696V9.2997C5.77395 8.15783 6.65972 7.23267 7.7527 7.2313H19.2384Z" fill="white"/>
<path d="M10.7034 14.9063H13.1044V17.4147C13.1044 17.6403 13.2795 17.8231 13.4952 17.8231C13.7112 17.8231 13.8861 17.6403 13.8861 17.4147V14.9063H16.2871C16.5031 14.9063 16.678 14.7236 16.678 14.498C16.678 14.2724 16.5031 14.0896 16.2871 14.0896H13.8861V11.5812C13.8861 11.3556 13.7112 11.1729 13.4952 11.1729C13.2795 11.1729 13.1044 11.3556 13.1044 11.5812V14.0896H10.7034C10.4876 14.0896 10.3125 14.2724 10.3125 14.498C10.3125 14.7236 10.4876 14.9063 10.7034 14.9063Z" fill="white"/>
</svg>
