<svg width="22" height="23" viewBox="0 0 22 23" fill="none" xmlns="http://www.w3.org/2000/svg">
<path d="M13.5478 11.4663H8.45609C5.01474 11.4663 2.28245 14.0543 2.21521 17.2487C2.02572 18.2134 1.76899 19.9002 2.4047 20.501C4.12231 22.0665 8.00988 22.6673 10.9989 22.6673C14.0552 22.6673 17.8755 22.0665 19.5931 20.501C20.2288 19.9002 19.9782 18.2134 19.7826 17.2487C19.7276 14.0543 16.928 11.4663 13.5478 11.4663ZM18.774 19.5941C17.5637 20.7378 14.5686 21.4599 11.0722 21.4599C7.56977 21.4599 4.51352 20.7378 3.37047 19.6518C3.24211 19.4092 2.63086 12.8758 8.4622 12.6043C9.78862 12.5408 13.6212 12.6043 13.6212 12.6043C19.3364 12.6101 18.9024 19.415 18.774 19.5941Z" fill="white"/>
<path d="M10.9378 10.3803C13.7374 10.3803 16.0296 8.21404 15.9684 5.62032C15.9684 2.96883 13.7374 0.860352 10.9378 0.860352C8.19942 0.860352 5.90723 3.0266 5.90723 5.62032C5.90723 8.2718 8.1383 10.3803 10.9378 10.3803ZM10.9378 2.06767C13.0405 2.06767 14.7582 3.69091 14.7582 5.62032C14.7582 7.54972 13.0405 9.17296 10.9378 9.17296C8.83512 9.17296 7.1175 7.54972 7.1175 5.62032C7.1175 3.69091 8.84124 2.06767 10.9378 2.06767Z" fill="white"/>
</svg>
